<svg xmlns="http://www.w3.org/2000/svg" width="103" height="114.062"><path d="M-.007 2.705a16.612 16.612 0 011.906-.047c.27-.012.258.218.316.372q1.678 4.477 3.347 8.956.427 1.145.861 2.3a.52.52 0 00.223-.389q2.02-5.394 4.02-10.8a.543.543 0 01.645-.449 8.277 8.277 0 001.23 0c.335-.018.374.068.253.381-1.055 2.732-2.092 5.47-3.138 8.207q-1.527 3.995-3.063 7.991a.3.3 0 01-.169.247c-.437-1.137-.876-2.27-1.309-3.407Q2.645 9.603.173 3.141a.567.567 0 00-.18-.351v-.091zm45.364 48.343c.111-.763.225-1.525.334-2.289q.354-2.51.7-5.019a.955.955 0 00-.479-1.21l2.562-1.174.087.086a5.119 5.119 0 00-.685 1.747c-.339 1.886-.542 3.794-.811 5.692-.284 2-.552 4.008-.816 6.016a.38.38 0 01-.293.346q-.743.284-1.474.6c-.223.1-.293.066-.356-.187-.528-2.171-1.077-4.337-1.62-6.5a.263.263 0 00-.163-.255c-.1.711-.2 1.4-.286 2.1q-.376 2.923-.745 5.843a.313.313 0 01-.19.323c-.618.243-1.233.5-1.873.758l-1.674-6.765c-.278-1.119-.556-2.239-.842-3.357a1.083 1.083 0 00-.515-.783c.917-.425 1.8-.83 2.72-1.257-.309 1.278.278 2.382.51 3.535.238 1.184.558 2.351.862 3.606a5.749 5.749 0 00.255-1.37q.483-3.343.93-6.692a.451.451 0 01.3-.4c.471-.209.942-.42 1.4-.651.256-.129.342-.092.41.207.543 2.353 1.105 4.7 1.661 7.053a.8.8 0 01.091-.003zm-14.723-.994a4.112 4.112 0 012.2-2.011 1.926 1.926 0 012.831 1.871c.066 2.543.071 5.088.1 7.633a6.747 6.747 0 00.037.683.563.563 0 00.555.6c.075 0 .159-.012.17.094a.126.126 0 01-.106.127c-1.231.5-2.462.99-3.729 1.5a.479.479 0 010-.182 1.828 1.828 0 00.744-1.718c-.016-2.393-.05-4.786-.079-7.177a2.056 2.056 0 00-.029-.272.9.9 0 00-.549-.915 1.048 1.048 0 00-1.107.365 3.773 3.773 0 00-1.081 2.592c0 2.239.037 4.48.062 6.719a.89.89 0 00.812 1.062q-1.9.759-3.788 1.524c-.065-.143-.032-.206.036-.251a1.552 1.552 0 00.646-1.429l-.179-14.627a.846.846 0 00-.543-.877c.953-.428 1.863-.838 2.863-1.286v5.946c.051.011.092.021.134.029zm-11.481.279a1.589 1.589 0 01-.027.8.926.926 0 01-.752-.037 5.829 5.829 0 00-2.595.352 2.906 2.906 0 00-1.7 3.846 4.6 4.6 0 00.884 1.427c1.018 1.151 2.05 2.291 3.068 3.442a5.757 5.757 0 011.651 3.764 5.889 5.889 0 01-2.881 5.321 9.888 9.888 0 01-5.009 1.466.315.315 0 01-.4-.378 6.172 6.172 0 00-.079-.955c-.046-.32.017-.414.373-.337a5.317 5.317 0 003-.224 3.743 3.743 0 002.048-5.125 7.322 7.322 0 00-1.392-2.019c-.79-.866-1.618-1.7-2.387-2.581a5.13 5.13 0 01-1.073-5.825 6.177 6.177 0 013.4-3.086 10.152 10.152 0 013.362-.741c.424-.028.637.056.539.525a1.854 1.854 0 000 .365h-.026zm75.836-29.388c-.036.712-.036.713-.719.7a4.921 4.921 0 00-2.527.647 2.21 2.21 0 00-.852 2.935 4.276 4.276 0 00.939 1.169c.731.687 1.471 1.365 2.189 2.067a5.056 5.056 0 011.686 3 4.9 4.9 0 01-1.914 4.628 8.516 8.516 0 01-5.039 1.727c-.192.011-.3-.031-.251-.246a1.026 1.026 0 00.012-.137 2.364 2.364 0 01.14-1.15c.225-.261.713.061 1.094.068a5.239 5.239 0 002.137-.374 2.839 2.839 0 001.2-3.862 5.865 5.865 0 00-1.218-1.526c-.694-.682-1.4-1.354-2.092-2.038a4.314 4.314 0 01.536-6.833 8.1 8.1 0 014.129-1.525c.572-.06.573-.047.55.525-.002.074 0 .15 0 .225zM26.621 53.521a2.733 2.733 0 00-1.5-.357 2.407 2.407 0 00-2.12 1.354 6.624 6.624 0 00-.689 2.582 13.437 13.437 0 00.3 4.626 1.511 1.511 0 001.055 1.31 1.706 1.706 0 001.7-.764 6.462 6.462 0 001.028-2.126c.118.051.214.091.31.135.87.406.888.413.458 1.3a4.231 4.231 0 01-3.37 2.68 3.078 3.078 0 01-3.087-1.533 5.137 5.137 0 01-.78-2.408 10.4 10.4 0 01.688-5.106 5.635 5.635 0 015.664-3.494.3.3 0 01.356.373c-.028.455-.013.912-.013 1.428zM18.26 11.762c0-2.1.007-4.2-.008-6.306 0-.334.067-.471.423-.437a5.063 5.063 0 001 0c.386-.045.442.123.441.462-.01 3.61 0 7.219-.015 10.83 0 .378.093.484.474.476 1.062-.027 2.127 0 3.19-.017.309-.006.4.091.373.385a2.342 2.342 0 01-.078 1.235 1.825 1.825 0 01-1.224.086c-1.367.013-2.735-.01-4.1.013-.369.005-.487-.077-.484-.467.018-2.085.008-4.172.008-6.26zm7.187-.03c0-2.1.006-4.206-.008-6.309 0-.313.068-.43.4-.4a10.047 10.047 0 001.138 0 .246.246 0 01.312.305c-.014.671 0 1.341 0 2.012 0 3 .008 6-.009 9 0 .372.109.45.456.443 1.048-.022 2.1.01 3.145-.018.376-.013.463.115.433.455a5.167 5.167 0 000 .914c.025.294-.093.352-.363.348-1.7-.01-3.405-.014-5.106 0-.322 0-.4-.087-.4-.4.008-2.114.002-4.232.002-6.348zm-11.833-.022c0-2.089.008-4.175-.009-6.263 0-.345.089-.464.432-.426.462.05 1.066-.195 1.355.1a2.166 2.166 0 01.071 1.325c.006 3.855 0 7.71.013 11.564 0 .381-.1.515-.479.471-.447-.051-1.049.194-1.307-.1a2.371 2.371 0 01-.075-1.278c-.004-1.795-.001-3.594-.001-5.391zm87.024 25.233c-.188-.048-.165.173-.19.289a6.216 6.216 0 01-1.271 2.549 16.841 16.841 0 01-3.662 3.342 57.368 57.368 0 01-10.4 5.586c-5.429 2.356-11.055 4.177-16.635 6.117-9.548 3.315-19.166 6.425-28.662 9.891-6.649 2.429-13.255 4.964-19.639 8.044a39.015 39.015 0 00-8.216 4.932 13.881 13.881 0 00-4.157 5.179A5.745 5.745 0 007.29 85.4c.006.124-.062.322.115.349.2.032.145-.181.185-.3a10.819 10.819 0 01.356-1.032 9.908 9.908 0 012.514-3.21 29.951 29.951 0 015.2-3.684 106.393 106.393 0 0114.422-6.7c.378-.151.4.092.492.3q8.614 18.571 17.232 37.144c.887 1.914 1.776 3.826 2.682 5.776.089-.174.161-.306.225-.442q13.875-29.714 27.741-59.432a1.011 1.011 0 01.6-.558 90.761 90.761 0 0011.637-5.361 35.2 35.2 0 007.033-5.014 9.3 9.3 0 002.977-5.945c.006-.112.099-.308-.063-.346zM50.491 74.197c-1.227-2.8-2.417-5.5-3.6-8.213-.138-.317-.344-.941-.344-.941l.931-.394s5.394-1.824 8.093-2.734c.1-.032.2-.058.375-.109a47637.83 47637.83 0 00-5.455 12.393zm26.814-39.96a7.727 7.727 0 00-.873-2.952 3.009 3.009 0 00-1.892-1.6 3.22 3.22 0 00-3.383 1.26 5.535 5.535 0 00-.938 1.694c-.095-.229-.171-.4-.242-.582a.2.2 0 00-.309-.136c-.723.338-1.453.661-2.2 1a2.113 2.113 0 01.512 1.18 19.808 19.808 0 01.071 2.507q.091 6.261.162 12.52a3.235 3.235 0 01-.252 1.562c.756-.294 1.439-.568 2.13-.826.385-.142.832-.221.485-.8a.187.187 0 01-.013-.088v-5.317c2.033 1.2 3.849.79 5.239-1.2a6.8 6.8 0 00.737-1.357 13.869 13.869 0 00.766-6.863zm-3.233 6.809a3.441 3.441 0 01-.631 1.1 1.562 1.562 0 01-1.773.474 1.791 1.791 0 01-1.217-1.6c-.006-.808 0-1.615 0-2.423a13.582 13.582 0 01.247-3.946 5.608 5.608 0 01.838-1.76c.865-1.114 1.972-.989 2.527.3a9.7 9.7 0 01.6 3.67 11.109 11.109 0 01-.591 4.187zm-7.343-1.794a6.86 6.86 0 00-1.074-3.4 2.705 2.705 0 00-4.573-.181 9.019 9.019 0 00-.756 1.252c-.06-.529-.266-.591-.666-.382-.614.313-1.258.576-1.91.868a2.226 2.226 0 01.533 1.539q.084 6.97.159 13.939a3.6 3.6 0 01-.257 1.636l3.017-1.178a.762.762 0 01-.415-.764c-.009-1.553 0-3.108 0-4.675a3.011 3.011 0 004.088-.634 5.735 5.735 0 001.171-1.991 14.131 14.131 0 00.683-6.027zm-3.05 6.144a3.371 3.371 0 01-.664 1.186 1.2 1.2 0 01-1.366.335 1.392 1.392 0 01-.924-1.232c-.02-1.857-.045-3.713-.056-5.573a5.152 5.152 0 01.481-2.165 2.77 2.77 0 01.36-.577 1.149 1.149 0 012.025.137 4.76 4.76 0 01.586 1.715 6.642 6.642 0 01.095.677c.04.5.069 1 .094 1.37a12.886 12.886 0 01-.631 4.129zm18.212-11.877c1.915-.8 3.817-1.629 5.722-2.452.155-.068.353-.077.35-.341a10.271 10.271 0 00-.723-4.24 2.856 2.856 0 00-3.631-1.682 5.74 5.74 0 00-3.4 2.858 13.807 13.807 0 00-1.718 8.086 6.528 6.528 0 00.778 2.787 3.663 3.663 0 004.157 1.891 5.831 5.831 0 004.215-3.738c.3-.713.29-.716-.38-1.071a25.07 25.07 0 00-.58-.3c-.041.126-.079.224-.1.323a5.08 5.08 0 01-1.654 2.618c-1.4 1.2-2.566.844-3.1-.93a12.722 12.722 0 01-.4-3.071.632.632 0 01.464-.736zm.3-5.458A2.7 2.7 0 0183 26.869a.931.931 0 011.595.431 9.425 9.425 0 01.4 3.147.229.229 0 01-.165.241c-1.095.468-2.19.94-3.35 1.439a12.557 12.557 0 01.709-4.065zM56.216 48.143a1.247 1.247 0 01-.119-.066c-.218-.145-.306-.117-.387.168a4.671 4.671 0 01-1.515 2.389c-1.044.866-1.856.658-2.371-.594a4.585 4.585 0 01-.195-.605 10.942 10.942 0 01-.281-2.351.5.5 0 01.374-.566c1.663-.694 3.318-1.407 4.974-2.119a.336.336 0 00.322-.314 9.358 9.358 0 00-.563-3.717 2.629 2.629 0 00-3.5-1.484 4.715 4.715 0 00-2.308 1.986 12.077 12.077 0 00-1.827 6.538c0 .153-.006.306 0 .459a6.949 6.949 0 00.7 3.037 3 3 0 003.248 1.666 5.13 5.13 0 003.924-2.928c.521-1 .508-1.005-.478-1.497zm-4.05-6.59a2.157 2.157 0 01.645-.87.767.767 0 011.276.286 5.952 5.952 0 01.379 2.816.2.2 0 01-.153.194c-.942.4-1.884.812-2.9 1.249a10.277 10.277 0 01.751-3.673zM38.093 4.398a.451.451 0 00-.186.27l-2.916 6.379q-1.613 3.522-3.229 7.035c-.134.291-.157.433.24.406a7.313 7.313 0 011.184 0 .5.5 0 00.569-.382c.378-.876.8-1.738 1.172-2.616a.493.493 0 01.539-.351q2.6.026 5.2 0a.491.491 0 01.533.354c.393.906.809 1.8 1.217 2.7a.326.326 0 00.3.291c.587-.008 1.176 0 1.819 0-2.172-4.739-4.308-9.411-6.444-14.084zm1.829 9.057a211.145 211.145 0 00-3.733 0c-.208 0-.328-.024-.217-.275.675-1.526 1.343-3.053 2.015-4.577a.55.55 0 01.094-.118c.687 1.56 1.362 3.1 2.044 4.638.101.231.113.339-.205.339zm57.63 7.523a1.817 1.817 0 00-1.852 1.784 1.7 1.7 0 001.729 1.681 1.84 1.84 0 001.829-1.774 1.661 1.661 0 00-1.708-1.689zm-.121 3.2a1.433 1.433 0 01-1.462-1.422 1.539 1.539 0 011.55-1.514 1.414 1.414 0 011.46 1.413 1.555 1.555 0 01-1.55 1.521zm.122-2.187c.1.022.431-.118.428.275 0 .45-.376.339-.642.361-.19.017-.365.06-.376-.271-.015-.405.198-.403.588-.367zm-.064.806H97.2v.576h-.26v-1.5h.525a.62.62 0 01.4.114.419.419 0 01.141.338.429.429 0 01-.072.253.477.477 0 01-.2.156l.335.624v.012h-.277zm-.289-.208h.266a.3.3 0 00.205-.067.237.237 0 00.074-.183.25.25 0 00-.068-.186.3.3 0 00-.2-.068H97.2v.5zM102.72.054c-.051.254-.091.509-.155.759a9.455 9.455 0 01-2.367 3.9.993.993 0 01-.824.363c-5.99-.01-11.98 0-17.97-.018a.614.614 0 00-.671.431c-1.967 4.508-3.954 9.009-5.928 13.514a.944.944 0 01-.548.55c-1.293.52-2.574 1.075-3.866 1.6q-4.382 1.769-8.78 3.523a1.338 1.338 0 01-.048-.15c-.028-.167-.051-.331-.078-.5a10.623 10.623 0 00-3.143-6.283 6.43 6.43 0 00-5.139-1.881 6.83 6.83 0 00-5.027 2.963 12.177 12.177 0 00-1.665 11.282c.1.339.091.471-.276.616-4.065 1.587-12.5 5.068-12.5 5.068l-.282-.4s-3.862-8.817-5.784-13.23a.58.58 0 00-.631-.418q-9.463.018-18.927.009h-.432c.089.206.144.346.207.481q4.81 10.37 9.632 20.735a.4.4 0 01-.216.64 46.237 46.237 0 00-3.522 2.182 35.047 35.047 0 00-6.332 5.2 9.962 9.962 0 00-2.79 6.476c-.006.125-.093.313.069.358s.157-.145.173-.251a7 7 0 011.523-3.271 23.453 23.453 0 015.534-4.925 78.843 78.843 0 0113.5-7.23c7.115-3.056 14.312-5.913 21.521-8.74.946-.371.945-.374 1.6.365.06.068.122.134.185.2a6.549 6.549 0 009.91.064 10.682 10.682 0 002.81-5.965.718.718 0 01.5-.657 462.47 462.47 0 006.265-2.575 222.907 222.907 0 0023.326-11.064 33.137 33.137 0 007.98-5.937 12.787 12.787 0 003.227-5.33 1.415 1.415 0 01.223-.711c0-.5-.029-1.009.011-1.508.01-.297-.147-.227-.297-.237zM54.541 17.369c.1.234.193.468.29.7-.282.043-.338.016-.487-.361a.725.725 0 00-.524-.554c.387-.233.552-.184.719.213zm-.786.2c-.021.211.492.2.2.52a.255.255 0 01-.44-.028c-.215-.268.173-.299.238-.499zm-.818-.172a.444.444 0 01.682-.321 2.288 2.288 0 00-.621.922.309.309 0 01-.352.143c.096-.25.202-.496.289-.747zm-1.213 1.431a1.314 1.314 0 01.638-.488h.012a1.074 1.074 0 011.264.378 1.272 1.272 0 011.458-.38 1.444 1.444 0 01.941 1.126c.143.6.341 1.182.53 1.827a1.084 1.084 0 01-.747-.755c-.1-.393-.23-.782-.363-1.167a.921.921 0 00-1.593-.4.3.3 0 01-.141.13.1.1 0 01-.015.027c-.748-.567-1.433-.512-1.717.384-.1.317-.206.634-.29.955a1.151 1.151 0 01-.775.822 17.492 17.492 0 01.796-2.462zm2.034 1.119a5.237 5.237 0 00.649 1.045.783.783 0 01-1.335.007 6.445 6.445 0 00.684-1.055zm-.864-.036a1.206 1.206 0 01-.887 1.192c.186-.57.328-1.12.549-1.636.2-.47.691-.476 1-.016-.456-.152-.575.111-.664.457zm1.007-.438c.366-.488.856-.459 1.056.029.209.507.347 1.044.533 1.618a.94.94 0 01-.758-.7c-.042-.177-.1-.348-.141-.525-.081-.353-.216-.613-.691-.425zm-4.454 5.186c.15-.588.3-1.177.472-1.759a2 2 0 011.859-1.5 1.862 1.862 0 011.988 1.235 1.863 1.863 0 011.894-1.239 1.976 1.976 0 011.925 1.587c.382 1.37.728 2.749 1.108 4.192a1.314 1.314 0 01-.9-.916 112.273 112.273 0 00-.824-3.127 1.476 1.476 0 00-1.419-1.255 1.548 1.548 0 00-1.589.914c-.067.118-.193.386-.193.386s-.2-.325-.3-.478a1.545 1.545 0 00-1.6-.817 1.487 1.487 0 00-1.352 1.22c-.262 1.044-.559 2.082-.815 3.128a1.4 1.4 0 01-.891.951c.229-.895.427-1.712.635-2.525zm8.291 3.4a.643.643 0 01-.656.094 3.1 3.1 0 01-1.339-.172.482.482 0 00-.428.08 1.723 1.723 0 01-1.429-.045 1.768 1.768 0 011.138-.578c-1.08 0-1.251-.488-1.266-.747-.044.258-.26.741-1.27.735a1.927 1.927 0 011.11.583 1.581 1.581 0 01-1.372.065.781.781 0 00-.686-.021 3.092 3.092 0 01-1.076.1.8.8 0 01-.742-.091.8.8 0 00.425-.185 2.566 2.566 0 01-1.146-.24.324.324 0 01.313-.123c.222-.017.458.033.494-.314a.407.407 0 01.346-.264c.262-.069.528-.132.792-.2a.518.518 0 00.51-.528.946.946 0 01.308-.644.354.354 0 01.348-.172c.174.054.064.206.076.313.032.275.211.331.364.158a2.834 2.834 0 00.8-1.452.439.439 0 00-.135-.459.453.453 0 00-.465.09c-.054.027-.1.072-.15.1-.112.069-.239.215-.36.107-.148-.13.042-.236.108-.332a.544.544 0 00-.228-.9c.667-.261 1.032-.024 1.637 1.047.41-.953.8-1.226 1.64-1.089a.605.605 0 00-.168 1.054.162.162 0 01.038.207c-.073.1-.165.04-.242 0s-.148-.105-.227-.149a.465.465 0 00-.538-.116.51.51 0 00-.1.513 3.119 3.119 0 00.763 1.376.233.233 0 00.247.078c.142-.034.11-.158.123-.26s-.073-.224.066-.278a.3.3 0 01.323.116.91.91 0 01.337.628.613.613 0 00.643.619 5.349 5.349 0 01.6.145.482.482 0 01.29.142.922.922 0 001.032.506 2.672 2.672 0 01-1.34.341c.24.073.364.115.49.155zm-7.431-2.177c.249-.923.489-1.849.772-2.762a1.089 1.089 0 011.758-.576 1.052 1.052 0 00-1.264.952c-.223.758-.459 1.51-.649 2.275a1.156 1.156 0 01-.772.851 2 2 0 01.153-.747zm4.268-3.265a.858.858 0 01.971-.3 1.1 1.1 0 01.9.859c.258.92.5 1.842.756 2.762.058.217.118.431.194.709a1.239 1.239 0 01-.841-.906c-.2-.793-.433-1.577-.671-2.36a.934.934 0 00-1.311-.771zm-5.37 10.174a5.693 5.693 0 00.154-2.008c.021-.239-.235-.122-.343-.29a2.882 2.882 0 001.058-.691c0 .572-.016 1.06 0 1.549a3.182 3.182 0 00.13 1.44h-1zm3.721-2.474c-.281.816-.529 1.644-.788 2.466-.054.174-.137.522-.137.522a.534.534 0 01-.623.519 3.4 3.4 0 01-.381 0c.348-1.027.663-2.006 1.017-2.971a.294.294 0 00-.245-.38 3.59 3.59 0 00-1.091.192.351.351 0 01.044-.306.7.7 0 01.594-.479 7.152 7.152 0 001.317 0c.402-.035.402.108.291.43zm2.728 3.352a1.594 1.594 0 01-2.075-.1 1.164 1.164 0 01.279-1.707 1.238 1.238 0 01-.085-1.8 1.49 1.49 0 011.843.061.99.99 0 01-.146 1.516 1.4 1.4 0 01.182 2.023zm2.906-1.493a1.441 1.441 0 01-1.552.7c-.344-.03-.679-.07-.61-.589a2.025 2.025 0 00.851.142.544.544 0 00.577-.524.533.533 0 00-.569-.482 2.418 2.418 0 00-.318-.024.164.164 0 01-.185-.2c0-.117.013-.216.164-.217a1.032 1.032 0 00.136-.006c.267-.028.558-.064.517-.424s-.345-.333-.6-.313a4.206 4.206 0 00-.488.1.427.427 0 01.453-.5 1.875 1.875 0 01.941.057.646.646 0 01.18 1.212.837.837 0 01.501 1.061zm-10.127-3.218a.77.77 0 01.707-.372c.805.01 1.61.015 2.414 0h4.4a62.31 62.31 0 002.368 0 .745.745 0 01.721.372H48.431zm5.839 3.214a.713.713 0 00-.289.75.758.758 0 00.166.379.584.584 0 00.764.206.52.52 0 00.249-.7 1.6 1.6 0 00-.892-.645zm.311-1.039a.367.367 0 00.081.042.424.424 0 00.361.132.544.544 0 00.16-.5.688.688 0 00-.48-.7.376.376 0 00-.487.229.632.632 0 00.363.79zm1.625-10.748l-3.594-2.193" fill="#fff" fill-rule="evenodd"/></svg>