<svg xmlns="http://www.w3.org/2000/svg" width="103" height="114.062" viewBox="0 0 103 114.062">
  <metadata><?xpacket begin="﻿" id="W5M0MpCehiHzreSzNTczkc9d"?>
<x:xmpmeta xmlns:x="adobe:ns:meta/" x:xmptk="Adobe XMP Core 5.6-c142 79.160924, 2017/07/13-01:06:39        ">
   <rdf:RDF xmlns:rdf="http://www.w3.org/1999/02/22-rdf-syntax-ns#">
      <rdf:Description rdf:about=""/>
   </rdf:RDF>
</x:xmpmeta>
                                                                                                    
                                                                                                    
                                                                                                    
                                                                                                    
                                                                                                    
                                                                                                    
                                                                                                    
                                                                                                    
                                                                                                    
                                                                                                    
                                                                                                    
                                                                                                    
                                                                                                    
                                                                                                    
                                                                                                    
                                                                                                    
                                                                                                    
                                                                                                    
                                                                                                    
                                                                                                    
                           
<?xpacket end="w"?></metadata>
<defs>
    <style>
      .cls-1 {
        fill: #fff;
        fill-rule: evenodd;
      }
    </style>
  </defs>
  <path id="LOGO" class="cls-1" d="M101.993,393.643a16.612,16.612,0,0,1,1.906-.047c0.27-.012.258,0.218,0.316,0.372q1.678,4.477,3.347,8.956,0.427,1.145.861,2.3a0.52,0.52,0,0,0,.223-0.389q2.02-5.394,4.02-10.8a0.543,0.543,0,0,1,.645-0.449,8.277,8.277,0,0,0,1.23,0c0.335-.018.374,0.068,0.253,0.381-1.055,2.732-2.092,5.47-3.138,8.207q-1.527,3.995-3.063,7.991a0.3,0.3,0,0,1-.169.247c-0.437-1.137-.876-2.27-1.309-3.407q-2.47-6.464-4.942-12.926a0.567,0.567,0,0,0-.18-0.351v-0.091Zm45.364,48.343c0.111-.763.225-1.525,0.334-2.289q0.354-2.51.7-5.019a0.955,0.955,0,0,0-.479-1.21l2.562-1.174,0.087,0.086a5.119,5.119,0,0,0-.685,1.747c-0.339,1.886-.542,3.794-0.811,5.692-0.284,2-.552,4.008-0.816,6.016a0.38,0.38,0,0,1-.293.346q-0.743.284-1.474,0.6c-0.223.1-.293,0.066-0.356-0.187-0.528-2.171-1.077-4.337-1.62-6.5a0.263,0.263,0,0,0-.163-0.255c-0.1.711-.2,1.4-0.286,2.1q-0.376,2.923-.745,5.843a0.313,0.313,0,0,1-.19.323c-0.618.243-1.233,0.5-1.873,0.758-0.564-2.281-1.118-4.522-1.674-6.765-0.278-1.119-.556-2.239-0.842-3.357a1.083,1.083,0,0,0-.515-0.783c0.917-.425,1.8-0.83,2.72-1.257-0.309,1.278.278,2.382,0.51,3.535,0.238,1.184.558,2.351,0.862,3.606a5.749,5.749,0,0,0,.255-1.37q0.483-3.343.93-6.692a0.451,0.451,0,0,1,.3-0.4c0.471-.209.942-0.42,1.4-0.651,0.256-.129.342-0.092,0.41,0.207,0.543,2.353,1.105,4.7,1.661,7.053A0.8,0.8,0,0,1,147.357,441.986Zm-14.723-.994a4.112,4.112,0,0,1,2.2-2.011,1.926,1.926,0,0,1,2.831,1.871c0.066,2.543.071,5.088,0.1,7.633a6.747,6.747,0,0,0,.037.683,0.563,0.563,0,0,0,.555.6c0.075,0,.159-0.012.17,0.094a0.126,0.126,0,0,1-.106.127c-1.231.5-2.462,0.99-3.729,1.5a0.479,0.479,0,0,1,0-.182,1.828,1.828,0,0,0,.744-1.718c-0.016-2.393-.05-4.786-0.079-7.177a2.056,2.056,0,0,0-.029-0.272,0.9,0.9,0,0,0-.549-0.915,1.048,1.048,0,0,0-1.107.365,3.773,3.773,0,0,0-1.081,2.592c0,2.239.037,4.48,0.062,6.719a0.89,0.89,0,0,0,.812,1.062q-1.9.759-3.788,1.524c-0.065-.143-0.032-0.206.036-0.251a1.552,1.552,0,0,0,.646-1.429q-0.089-7.314-.179-14.627a0.846,0.846,0,0,0-.543-0.877c0.953-.428,1.863-0.838,2.863-1.286v5.946C132.551,440.974,132.592,440.984,132.634,440.992Zm-11.481.279a1.589,1.589,0,0,1-.027.8,0.926,0.926,0,0,1-.752-0.037,5.829,5.829,0,0,0-2.595.352,2.906,2.906,0,0,0-1.7,3.846,4.6,4.6,0,0,0,.884,1.427c1.018,1.151,2.05,2.291,3.068,3.442a5.757,5.757,0,0,1,1.651,3.764,5.889,5.889,0,0,1-2.881,5.321,9.888,9.888,0,0,1-5.009,1.466,0.315,0.315,0,0,1-.4-0.378,6.172,6.172,0,0,0-.079-0.955c-0.046-.32.017-0.414,0.373-0.337a5.317,5.317,0,0,0,3-.224,3.743,3.743,0,0,0,2.048-5.125,7.322,7.322,0,0,0-1.392-2.019c-0.79-.866-1.618-1.7-2.387-2.581a5.13,5.13,0,0,1-1.073-5.825,6.177,6.177,0,0,1,3.4-3.086,10.152,10.152,0,0,1,3.362-.741c0.424-.028.637,0.056,0.539,0.525a1.854,1.854,0,0,0,0,.365h-0.026Zm75.836-29.388c-0.036.712-.036,0.713-0.719,0.7a4.921,4.921,0,0,0-2.527.647,2.21,2.21,0,0,0-.852,2.935,4.276,4.276,0,0,0,.939,1.169c0.731,0.687,1.471,1.365,2.189,2.067a5.056,5.056,0,0,1,1.686,3,4.9,4.9,0,0,1-1.914,4.628,8.516,8.516,0,0,1-5.039,1.727c-0.192.011-.3-0.031-0.251-0.246a1.026,1.026,0,0,0,.012-0.137,2.364,2.364,0,0,1,.14-1.15c0.225-.261.713,0.061,1.094,0.068a5.239,5.239,0,0,0,2.137-.374,2.839,2.839,0,0,0,1.2-3.862,5.865,5.865,0,0,0-1.218-1.526c-0.694-.682-1.4-1.354-2.092-2.038a4.314,4.314,0,0,1,.536-6.833,8.1,8.1,0,0,1,4.129-1.525c0.572-.06.573-0.047,0.55,0.525C196.987,411.732,196.989,411.808,196.989,411.883Zm-68.368,32.576a2.733,2.733,0,0,0-1.5-.357,2.407,2.407,0,0,0-2.12,1.354,6.624,6.624,0,0,0-.689,2.582,13.437,13.437,0,0,0,.3,4.626,1.511,1.511,0,0,0,1.055,1.31,1.706,1.706,0,0,0,1.7-.764,6.462,6.462,0,0,0,1.028-2.126c0.118,0.051.214,0.091,0.31,0.135,0.87,0.406.888,0.413,0.458,1.3a4.231,4.231,0,0,1-3.37,2.68,3.078,3.078,0,0,1-3.087-1.533,5.137,5.137,0,0,1-.78-2.408,10.4,10.4,0,0,1,.688-5.106,5.635,5.635,0,0,1,5.664-3.494,0.3,0.3,0,0,1,.356.373C128.606,443.486,128.621,443.943,128.621,444.459ZM120.26,402.7c0-2.1.007-4.2-.008-6.306,0-.334.067-0.471,0.423-0.437a5.063,5.063,0,0,0,1,0c0.386-.045.442,0.123,0.441,0.462-0.01,3.61,0,7.219-.015,10.83,0,0.378.093,0.484,0.474,0.476,1.062-.027,2.127,0,3.19-0.017,0.309-.006.4,0.091,0.373,0.385a2.342,2.342,0,0,1-.078,1.235,1.825,1.825,0,0,1-1.224.086c-1.367.013-2.735-.01-4.1,0.013-0.369.005-.487-0.077-0.484-0.467C120.27,406.875,120.26,404.788,120.26,402.7Zm7.187-.03c0-2.1.006-4.206-.008-6.309,0-.313.068-0.43,0.4-0.4a10.047,10.047,0,0,0,1.138,0,0.246,0.246,0,0,1,.312.305c-0.014.671,0,1.341,0,2.012,0,3,.008,6-0.009,9,0,0.372.109,0.45,0.456,0.443,1.048-.022,2.1.01,3.145-0.018,0.376-.013.463,0.115,0.433,0.455a5.167,5.167,0,0,0,0,.914c0.025,0.294-.093.352-0.363,0.348-1.7-.01-3.405-0.014-5.106,0-0.322,0-.4-0.087-0.4-0.4C127.453,406.906,127.447,404.788,127.447,402.672Zm-11.833-.022c0-2.089.008-4.175-.009-6.263,0-.345.089-0.464,0.432-0.426,0.462,0.05,1.066-.195,1.355.1a2.166,2.166,0,0,1,.071,1.325c0.006,3.855,0,7.71.013,11.564,0,0.381-.1.515-0.479,0.471-0.447-.051-1.049.194-1.307-0.1a2.371,2.371,0,0,1-.075-1.278C115.611,406.246,115.614,404.447,115.614,402.65Zm87.024,25.233c-0.188-.048-0.165.173-0.19,0.289a6.216,6.216,0,0,1-1.271,2.549,16.841,16.841,0,0,1-3.662,3.342,57.368,57.368,0,0,1-10.4,5.586c-5.429,2.356-11.055,4.177-16.635,6.117-9.548,3.315-19.166,6.425-28.662,9.891-6.649,2.429-13.255,4.964-19.639,8.044a39.015,39.015,0,0,0-8.216,4.932,13.881,13.881,0,0,0-4.157,5.179,5.745,5.745,0,0,0-.516,2.528c0.006,0.124-.062.322,0.115,0.349,0.2,0.032.145-.181,0.185-0.3a10.819,10.819,0,0,1,.356-1.032,9.908,9.908,0,0,1,2.514-3.21,29.951,29.951,0,0,1,5.2-3.684,106.393,106.393,0,0,1,14.422-6.7c0.378-.151.4,0.092,0.492,0.3q8.614,18.571,17.232,37.144c0.887,1.914,1.776,3.826,2.682,5.776,0.089-.174.161-0.306,0.225-0.442q13.875-29.714,27.741-59.432a1.011,1.011,0,0,1,.6-0.558,90.761,90.761,0,0,0,11.637-5.361,35.2,35.2,0,0,0,7.033-5.014,9.3,9.3,0,0,0,2.977-5.945C202.707,428.117,202.8,427.921,202.638,427.883Zm-50.147,37.254c-1.227-2.8-2.417-5.5-3.6-8.213-0.138-.317-0.344-0.941-0.344-0.941l0.931-.394s5.394-1.824,8.093-2.734c0.1-.032.2-0.058,0.375-0.109C156.119,456.893,154.321,460.978,152.491,465.137Zm26.814-39.96a7.727,7.727,0,0,0-.873-2.952,3.009,3.009,0,0,0-1.892-1.6,3.22,3.22,0,0,0-3.383,1.26,5.535,5.535,0,0,0-.938,1.694c-0.095-.229-0.171-0.4-0.242-0.582a0.2,0.2,0,0,0-.309-0.136c-0.723.338-1.453,0.661-2.2,1a2.113,2.113,0,0,1,.512,1.18,19.808,19.808,0,0,1,.071,2.507q0.091,6.261.162,12.52a3.235,3.235,0,0,1-.252,1.562c0.756-.294,1.439-0.568,2.13-0.826,0.385-.142.832-0.221,0.485-0.8a0.187,0.187,0,0,1-.013-0.088c0-1.777,0-3.553,0-5.317,2.033,1.2,3.849.79,5.239-1.2a6.8,6.8,0,0,0,.737-1.357A13.869,13.869,0,0,0,179.305,425.177Zm-3.233,6.809a3.441,3.441,0,0,1-.631,1.1,1.562,1.562,0,0,1-1.773.474,1.791,1.791,0,0,1-1.217-1.6c-0.006-.808,0-1.615,0-2.423a13.582,13.582,0,0,1,.247-3.946,5.608,5.608,0,0,1,.838-1.76c0.865-1.114,1.972-.989,2.527.3a9.7,9.7,0,0,1,.6,3.67A11.109,11.109,0,0,1,176.072,431.986Zm-7.343-1.794a6.86,6.86,0,0,0-1.074-3.4,2.705,2.705,0,0,0-4.573-.181,9.019,9.019,0,0,0-.756,1.252c-0.06-.529-0.266-0.591-0.666-0.382-0.614.313-1.258,0.576-1.91,0.868a2.226,2.226,0,0,1,.533,1.539q0.084,6.97.159,13.939a3.6,3.6,0,0,1-.257,1.636c0.991-.388,1.983-0.775,3.017-1.178a0.762,0.762,0,0,1-.415-0.764c-0.009-1.553,0-3.108,0-4.675a3.011,3.011,0,0,0,4.088-.634,5.735,5.735,0,0,0,1.171-1.991A14.131,14.131,0,0,0,168.729,430.192Zm-3.05,6.144a3.371,3.371,0,0,1-.664,1.186,1.2,1.2,0,0,1-1.366.335,1.392,1.392,0,0,1-.924-1.232c-0.02-1.857-.045-3.713-0.056-5.573a5.152,5.152,0,0,1,.481-2.165,2.77,2.77,0,0,1,.36-0.577,1.149,1.149,0,0,1,2.025.137,4.76,4.76,0,0,1,.586,1.715,6.642,6.642,0,0,1,.095.677c0.04,0.5.069,1,.094,1.37A12.886,12.886,0,0,1,165.679,436.336Zm18.212-11.877c1.915-.8,3.817-1.629,5.722-2.452,0.155-.068.353-0.077,0.35-0.341a10.271,10.271,0,0,0-.723-4.24,2.856,2.856,0,0,0-3.631-1.682,5.74,5.74,0,0,0-3.4,2.858,13.807,13.807,0,0,0-1.718,8.086,6.528,6.528,0,0,0,.778,2.787,3.663,3.663,0,0,0,4.157,1.891,5.831,5.831,0,0,0,4.215-3.738c0.3-.713.29-0.716-0.38-1.071-0.186-.1-0.372-0.195-0.58-0.3-0.041.126-.079,0.224-0.1,0.323a5.08,5.08,0,0,1-1.654,2.618c-1.4,1.2-2.566.844-3.1-.93a12.722,12.722,0,0,1-.4-3.071A0.632,0.632,0,0,1,183.891,424.459Zm0.3-5.458a2.7,2.7,0,0,1,.809-1.192,0.931,0.931,0,0,1,1.595.431,9.425,9.425,0,0,1,.4,3.147,0.229,0.229,0,0,1-.165.241c-1.095.468-2.19,0.94-3.35,1.439A12.557,12.557,0,0,1,184.189,419Zm-25.975,20.082a1.247,1.247,0,0,1-.119-0.066c-0.218-.145-0.306-0.117-0.387.168a4.671,4.671,0,0,1-1.515,2.389c-1.044.866-1.856,0.658-2.371-.594a4.585,4.585,0,0,1-.195-0.605,10.942,10.942,0,0,1-.281-2.351,0.5,0.5,0,0,1,.374-0.566c1.663-.694,3.318-1.407,4.974-2.119a0.336,0.336,0,0,0,.322-0.314,9.358,9.358,0,0,0-.563-3.717,2.629,2.629,0,0,0-3.5-1.484,4.715,4.715,0,0,0-2.308,1.986,12.077,12.077,0,0,0-1.827,6.538c0,0.153-.006.306,0,0.459a6.949,6.949,0,0,0,.7,3.037,3,3,0,0,0,3.248,1.666,5.13,5.13,0,0,0,3.924-2.928C159.213,439.58,159.2,439.575,158.214,439.083Zm-4.05-6.59a2.157,2.157,0,0,1,.645-0.87,0.767,0.767,0,0,1,1.276.286,5.952,5.952,0,0,1,.379,2.816,0.2,0.2,0,0,1-.153.194c-0.942.4-1.884,0.812-2.9,1.249A10.277,10.277,0,0,1,154.164,432.493Zm-14.073-37.155a0.451,0.451,0,0,0-.186.27q-1.46,3.192-2.916,6.379-1.613,3.522-3.229,7.035c-0.134.291-.157,0.433,0.24,0.406a7.313,7.313,0,0,1,1.184,0,0.5,0.5,0,0,0,.569-0.382c0.378-.876.8-1.738,1.172-2.616a0.493,0.493,0,0,1,.539-0.351q2.6,0.026,5.2,0a0.491,0.491,0,0,1,.533.354c0.393,0.906.809,1.8,1.217,2.7a0.326,0.326,0,0,0,.3.291c0.587-.008,1.176,0,1.819,0C144.363,404.683,142.227,400.011,140.091,395.338Zm1.829,9.057c-1.244-.014-2.489-0.008-3.733,0-0.208,0-.328-0.024-0.217-0.275,0.675-1.526,1.343-3.053,2.015-4.577a0.55,0.55,0,0,1,.094-0.118c0.687,1.56,1.362,3.1,2.044,4.638C142.226,404.292,142.238,404.4,141.92,404.4Zm57.63,7.523A1.817,1.817,0,0,0,197.7,413.7a1.7,1.7,0,0,0,1.729,1.681,1.84,1.84,0,0,0,1.829-1.774A1.661,1.661,0,0,0,199.55,411.918Zm-0.121,3.2a1.433,1.433,0,0,1-1.462-1.422,1.539,1.539,0,0,1,1.55-1.514,1.414,1.414,0,0,1,1.46,1.413A1.555,1.555,0,0,1,199.429,415.114Zm0.122-2.187c0.1,0.022.431-.118,0.428,0.275,0,0.45-.376.339-0.642,0.361-0.19.017-.365,0.06-0.376-0.271C198.948,412.889,199.161,412.891,199.551,412.927Zm-0.064.806H199.2v0.576h-0.26v-1.5h0.525a0.62,0.62,0,0,1,.4.114,0.419,0.419,0,0,1,.141.338,0.429,0.429,0,0,1-.072.253,0.477,0.477,0,0,1-.2.156l0.335,0.624v0.012h-0.277Zm-0.289-.208h0.266a0.3,0.3,0,0,0,.205-0.067,0.237,0.237,0,0,0,.074-0.183,0.25,0.25,0,0,0-.068-0.186,0.3,0.3,0,0,0-.2-0.068H199.2v0.5Zm5.52-22.535c-0.051.254-.091,0.509-0.155,0.759a9.455,9.455,0,0,1-2.367,3.9,0.993,0.993,0,0,1-.824.363c-5.99-.01-11.98,0-17.97-0.018a0.614,0.614,0,0,0-.671.431c-1.967,4.508-3.954,9.009-5.928,13.514a0.944,0.944,0,0,1-.548.55c-1.293.52-2.574,1.075-3.866,1.6q-4.382,1.769-8.78,3.523a1.338,1.338,0,0,1-.048-0.15c-0.028-.167-0.051-0.331-0.078-0.5a10.623,10.623,0,0,0-3.143-6.283,6.43,6.43,0,0,0-5.139-1.881,6.83,6.83,0,0,0-5.027,2.963,12.177,12.177,0,0,0-1.665,11.282c0.1,0.339.091,0.471-.276,0.616-4.065,1.587-12.5,5.068-12.5,5.068l-0.282-.4s-3.862-8.817-5.784-13.23a0.58,0.58,0,0,0-.631-0.418q-9.463.018-18.927,0.009h-0.432c0.089,0.206.144,0.346,0.207,0.481q4.81,10.37,9.632,20.735a0.4,0.4,0,0,1-.216.64c-1.21.667-2.376,1.409-3.522,2.182a35.047,35.047,0,0,0-6.332,5.2,9.962,9.962,0,0,0-2.79,6.476c-0.006.125-.093,0.313,0.069,0.358s0.157-.145.173-0.251a7,7,0,0,1,1.523-3.271,23.453,23.453,0,0,1,5.534-4.925,78.843,78.843,0,0,1,13.5-7.23c7.115-3.056,14.312-5.913,21.521-8.74,0.946-.371.945-0.374,1.6,0.365,0.06,0.068.122,0.134,0.185,0.2a6.549,6.549,0,0,0,9.91.064,10.682,10.682,0,0,0,2.81-5.965,0.718,0.718,0,0,1,.5-0.657c2.094-.845,4.185-1.7,6.265-2.575a222.907,222.907,0,0,0,23.326-11.064,33.137,33.137,0,0,0,7.98-5.937,12.787,12.787,0,0,0,3.227-5.33,1.415,1.415,0,0,1,.223-0.711c0-.5-0.029-1.009.011-1.508C205.025,390.93,204.868,391,204.718,390.99Zm-48.179,17.315c0.1,0.234.193,0.468,0.29,0.7-0.282.043-.338,0.016-0.487-0.361a0.725,0.725,0,0,0-.524-0.554C156.207,407.859,156.372,407.908,156.539,408.305Zm-0.786.2c-0.021.211,0.492,0.2,0.2,0.52a0.255,0.255,0,0,1-.44-0.028C155.3,408.731,155.688,408.7,155.753,408.5Zm-0.818-.172a0.444,0.444,0,0,1,.682-0.321,2.288,2.288,0,0,0-.621.922,0.309,0.309,0,0,1-.352.143C154.742,408.829,154.848,408.583,154.935,408.332Zm-1.213,1.431a1.314,1.314,0,0,1,.638-0.488l0.012,0a1.074,1.074,0,0,1,1.264.378,1.272,1.272,0,0,1,1.458-.38,1.444,1.444,0,0,1,.941,1.126c0.143,0.6.341,1.182,0.53,1.827a1.084,1.084,0,0,1-.747-0.755c-0.1-.393-0.23-0.782-0.363-1.167a0.921,0.921,0,0,0-1.593-.4,0.3,0.3,0,0,1-.141.13,0.1,0.1,0,0,1-.015.027c-0.748-.567-1.433-0.512-1.717.384-0.1.317-.206,0.634-0.29,0.955a1.151,1.151,0,0,1-.775.822A17.492,17.492,0,0,1,153.722,409.763Zm2.034,1.119a5.237,5.237,0,0,0,.649,1.045,0.783,0.783,0,0,1-1.335.007A6.445,6.445,0,0,0,155.756,410.882Zm-0.864-.036a1.206,1.206,0,0,1-.887,1.192c0.186-.57.328-1.12,0.549-1.636,0.2-.47.691-0.476,1-0.016C155.1,410.237,154.981,410.5,154.892,410.846Zm1.007-.438c0.366-.488.856-0.459,1.056,0.029,0.209,0.507.347,1.044,0.533,1.618a0.94,0.94,0,0,1-.758-0.7c-0.042-.177-0.1-0.348-0.141-0.525C156.51,410.48,156.375,410.22,155.9,410.408Zm-4.454,5.186c0.15-.588.3-1.177,0.472-1.759a2,2,0,0,1,1.859-1.5,1.862,1.862,0,0,1,1.988,1.235,1.863,1.863,0,0,1,1.894-1.239,1.976,1.976,0,0,1,1.925,1.587c0.382,1.37.728,2.749,1.108,4.192a1.314,1.314,0,0,1-.9-0.916c-0.256-1.047-.538-2.088-0.824-3.127a1.476,1.476,0,0,0-1.419-1.255,1.548,1.548,0,0,0-1.589.914c-0.067.118-.193,0.386-0.193,0.386s-0.2-.325-0.3-0.478a1.545,1.545,0,0,0-1.6-.817,1.487,1.487,0,0,0-1.352,1.22c-0.262,1.044-.559,2.082-0.815,3.128a1.4,1.4,0,0,1-.891.951C151.039,417.224,151.237,416.407,151.445,415.594Zm8.291,3.4a0.643,0.643,0,0,1-.656.094,3.1,3.1,0,0,1-1.339-.172,0.482,0.482,0,0,0-.428.08,1.723,1.723,0,0,1-1.429-.045,1.768,1.768,0,0,1,1.138-.578c-1.08,0-1.251-.488-1.266-0.747-0.044.258-.26,0.741-1.27,0.735a1.927,1.927,0,0,1,1.11.583,1.581,1.581,0,0,1-1.372.065,0.781,0.781,0,0,0-.686-0.021,3.092,3.092,0,0,1-1.076.1,0.8,0.8,0,0,1-.742-0.091,0.8,0.8,0,0,0,.425-0.185,2.566,2.566,0,0,1-1.146-.24,0.324,0.324,0,0,1,.313-0.123c0.222-.017.458,0.033,0.494-0.314a0.407,0.407,0,0,1,.346-0.264c0.262-.069.528-0.132,0.792-0.2a0.518,0.518,0,0,0,.51-0.528,0.946,0.946,0,0,1,.308-0.644,0.354,0.354,0,0,1,.348-0.172c0.174,0.054.064,0.206,0.076,0.313,0.032,0.275.211,0.331,0.364,0.158a2.834,2.834,0,0,0,.8-1.452,0.439,0.439,0,0,0-.135-0.459,0.453,0.453,0,0,0-.465.09c-0.054.027-.1,0.072-0.15,0.1-0.112.069-.239,0.215-0.36,0.107-0.148-.13.042-0.236,0.108-0.332a0.544,0.544,0,0,0-.228-0.9c0.667-.261,1.032-0.024,1.637,1.047,0.41-.953.8-1.226,1.64-1.089a0.605,0.605,0,0,0-.168,1.054,0.162,0.162,0,0,1,.038.207c-0.073.1-.165,0.04-0.242,0s-0.148-.105-0.227-0.149a0.465,0.465,0,0,0-.538-0.116,0.51,0.51,0,0,0-.1.513,3.119,3.119,0,0,0,.763,1.376,0.233,0.233,0,0,0,.247.078c0.142-.034.11-0.158,0.123-0.26s-0.073-.224.066-0.278a0.3,0.3,0,0,1,.323.116,0.91,0.91,0,0,1,.337.628,0.613,0.613,0,0,0,.643.619,5.349,5.349,0,0,1,.6.145,0.482,0.482,0,0,1,.29.142,0.922,0.922,0,0,0,1.032.506,2.672,2.672,0,0,1-1.34.341C159.486,418.908,159.61,418.95,159.736,418.99Zm-7.431-2.177c0.249-.923.489-1.849,0.772-2.762a1.089,1.089,0,0,1,1.758-.576,1.052,1.052,0,0,0-1.264.952c-0.223.758-.459,1.51-0.649,2.275a1.156,1.156,0,0,1-.772.851A2,2,0,0,1,152.305,416.813Zm4.268-3.265a0.858,0.858,0,0,1,.971-0.3,1.1,1.1,0,0,1,.9.859c0.258,0.92.5,1.842,0.756,2.762,0.058,0.217.118,0.431,0.194,0.709a1.239,1.239,0,0,1-.841-0.906c-0.2-.793-0.433-1.577-0.671-2.36A0.934,0.934,0,0,0,156.573,413.548Zm-5.37,10.174a5.693,5.693,0,0,0,.154-2.008c0.021-.239-0.235-0.122-0.343-0.29a2.882,2.882,0,0,0,1.058-.691c0,0.572-.016,1.06,0,1.549a3.182,3.182,0,0,0,.13,1.44h-1Zm3.721-2.474c-0.281.816-.529,1.644-0.788,2.466-0.054.174-.137,0.522-0.137,0.522a0.534,0.534,0,0,1-.623.519,3.4,3.4,0,0,1-.381,0c0.348-1.027.663-2.006,1.017-2.971a0.294,0.294,0,0,0-.245-0.38,3.59,3.59,0,0,0-1.091.192,0.351,0.351,0,0,1,.044-0.306,0.7,0.7,0,0,1,.594-0.479,7.152,7.152,0,0,0,1.317,0C155.035,420.783,155.035,420.926,154.924,421.248Zm2.728,3.352a1.594,1.594,0,0,1-2.075-.1,1.164,1.164,0,0,1,.279-1.707,1.238,1.238,0,0,1-.085-1.8,1.49,1.49,0,0,1,1.843.061,0.99,0.99,0,0,1-.146,1.516A1.4,1.4,0,0,1,157.652,424.6Zm2.906-1.493a1.441,1.441,0,0,1-1.552.7c-0.344-.03-0.679-0.07-0.61-0.589a2.025,2.025,0,0,0,.851.142,0.544,0.544,0,0,0,.577-0.524,0.533,0.533,0,0,0-.569-0.482,2.418,2.418,0,0,0-.318-0.024,0.164,0.164,0,0,1-.185-0.2c0-.117.013-0.216,0.164-0.217a1.032,1.032,0,0,0,.136-0.006c0.267-.028.558-0.064,0.517-0.424s-0.345-.333-0.6-0.313a4.206,4.206,0,0,0-.488.1,0.427,0.427,0,0,1,.453-0.5,1.875,1.875,0,0,1,.941.057,0.646,0.646,0,0,1,.18,1.212A0.837,0.837,0,0,1,160.558,423.107Zm-10.127-3.218a0.77,0.77,0,0,1,.707-0.372c0.805,0.01,1.61.015,2.414,0h4.4c0.789,0.019,1.579.011,2.368,0a0.745,0.745,0,0,1,.721.372H150.431Zm5.839,3.214a0.713,0.713,0,0,0-.289.75,0.758,0.758,0,0,0,.166.379,0.584,0.584,0,0,0,.764.206,0.52,0.52,0,0,0,.249-0.7A1.6,1.6,0,0,0,156.27,423.1Zm0.311-1.039a0.367,0.367,0,0,0,.081.042,0.424,0.424,0,0,0,.361.132,0.544,0.544,0,0,0,.16-0.5,0.688,0.688,0,0,0-.48-0.7,0.376,0.376,0,0,0-.487.229A0.632,0.632,0,0,0,156.581,422.064Zm1.625-10.748-3.594-2.193" transform="translate(-102 -390.938)"/>
</svg>
