<svg xmlns="http://www.w3.org/2000/svg" viewBox="0 0 460.045 460.045"><g fill="#010002"><path d="M230.01 0C147.847 0 80.997 74.149 80.997 165.286c0 71.263 92.259 213.822 131.659 274.697 4.129 6.373 7.682 11.868 10.494 16.29a8.135 8.135 0 006.861 3.772 8.135 8.135 0 006.861-3.772c2.804-4.406 6.348-9.884 10.461-16.241 39.415-60.891 131.715-203.491 131.715-274.746C379.048 74.141 312.19 0 230.01 0zm3.674 431.197c-1.284 1.983-2.512 3.877-3.674 5.682-1.179-1.829-2.414-3.731-3.707-5.731-38.61-59.672-129.041-199.402-129.041-265.87 0-82.172 59.55-149.029 132.756-149.029 73.214 0 132.78 66.858 132.78 149.029-.008 66.46-90.479 206.23-129.114 265.919z"/><path d="M230.01 116.515c-26.897 0-48.771 21.874-48.771 48.771s21.874 48.771 48.771 48.771 48.771-21.882 48.771-48.771-21.881-48.771-48.771-48.771zm0 81.286c-17.932 0-32.514-14.583-32.514-32.514s14.583-32.514 32.514-32.514 32.514 14.583 32.514 32.514-14.582 32.514-32.514 32.514z"/></g></svg>