<?xml version="1.0" encoding="iso-8859-1"?>
<!-- Generator: Adobe Illustrator 18.1.1, SVG Export Plug-In . SVG Version: 6.00 Build 0)  -->
<svg version="1.1" id="Capa_1" xmlns="http://www.w3.org/2000/svg" xmlns:xlink="http://www.w3.org/1999/xlink" x="0px" y="0px"
	 viewBox="0 0 460.045 460.045" style="enable-background:new 0 0 460.045 460.045;" xml:space="preserve">
<g>
	<g>
		<path style="fill:#010002;" d="M230.01,0C147.847,0,80.997,74.149,80.997,165.286c0,71.263,92.259,213.822,131.659,274.697
			c4.129,6.373,7.682,11.868,10.494,16.29c1.496,2.349,4.081,3.772,6.861,3.772c2.78,0,5.365-1.423,6.861-3.772
			c2.804-4.406,6.348-9.884,10.461-16.241c39.415-60.891,131.715-203.491,131.715-274.746C379.048,74.141,312.19,0,230.01,0z
			 M233.684,431.197c-1.284,1.983-2.512,3.877-3.674,5.682c-1.179-1.829-2.414-3.731-3.707-5.731
			C187.693,371.476,97.262,231.746,97.262,165.278c0-82.172,59.55-149.029,132.756-149.029c73.214,0,132.78,66.858,132.78,149.029
			C362.79,231.738,272.319,371.508,233.684,431.197z"/>
		<path style="fill:#010002;" d="M230.01,116.515c-26.897,0-48.771,21.874-48.771,48.771s21.874,48.771,48.771,48.771
			s48.771-21.882,48.771-48.771S256.9,116.515,230.01,116.515z M230.01,197.801c-17.932,0-32.514-14.583-32.514-32.514
			s14.583-32.514,32.514-32.514s32.514,14.583,32.514,32.514S247.942,197.801,230.01,197.801z"/>
	</g>
</g>
<g>
</g>
<g>
</g>
<g>
</g>
<g>
</g>
<g>
</g>
<g>
</g>
<g>
</g>
<g>
</g>
<g>
</g>
<g>
</g>
<g>
</g>
<g>
</g>
<g>
</g>
<g>
</g>
<g>
</g>
</svg>
